<svg xmlns="http://www.w3.org/2000/svg" xmlns:xlink="http://www.w3.org/1999/xlink" id="visual" viewBox="0 0 480 400" width="480" height="400" version="1.1"><path d="M0 228L69 182L137 189L206 221L274 222L343 235L411 164L480 223L480 401L411 401L343 401L274 401L206 401L137 401L69 401L0 401Z" fill="#ffcc00"/><path d="M0 218L69 256L137 268L206 206L274 262L343 226L411 259L480 230L480 401L411 401L343 401L274 401L206 401L137 401L69 401L0 401Z" fill="#ffc400"/><path d="M0 280L69 270L137 242L206 287L274 269L343 264L411 237L480 257L480 401L411 401L343 401L274 401L206 401L137 401L69 401L0 401Z" fill="#ffbb00"/><path d="M0 290L69 308L137 294L206 263L274 257L343 310L411 272L480 299L480 401L411 401L343 401L274 401L206 401L137 401L69 401L0 401Z" fill="#ffb300"/><path d="M0 320L69 313L137 321L206 321L274 308L343 312L411 314L480 326L480 401L411 401L343 401L274 401L206 401L137 401L69 401L0 401Z" fill="#ffaa00"/><path d="M0 329L69 321L137 321L206 323L274 346L343 317L411 317L480 333L480 401L411 401L343 401L274 401L206 401L137 401L69 401L0 401Z" fill="#ffa200"/><path d="M0 365L69 347L137 348L206 367L274 377L343 381L411 369L480 372L480 401L411 401L343 401L274 401L206 401L137 401L69 401L0 401Z" fill="#ff9900"/></svg>