<svg id="visual" viewBox="0 0 767 600" width="767" height="600" xmlns="http://www.w3.org/2000/svg" xmlns:xlink="http://www.w3.org/1999/xlink" version="1.1"><rect x="0" y="0" width="767" height="600" fill="#1E1E1E"></rect><path d="M0 308L110 294L219 398L329 336L438 315L548 404L657 296L767 399L767 601L657 601L548 601L438 601L329 601L219 601L110 601L0 601Z" fill="#ffc400"></path><path d="M0 343L110 404L219 348L329 354L438 400L548 405L657 386L767 365L767 601L657 601L548 601L438 601L329 601L219 601L110 601L0 601Z" fill="#ffbb00"></path><path d="M0 427L110 386L219 388L329 433L438 451L548 390L657 413L767 467L767 601L657 601L548 601L438 601L329 601L219 601L110 601L0 601Z" fill="#ffb300"></path><path d="M0 475L110 504L219 433L329 464L438 440L548 471L657 497L767 464L767 601L657 601L548 601L438 601L329 601L219 601L110 601L0 601Z" fill="#ffaa00"></path><path d="M0 504L110 494L219 514L329 482L438 481L548 523L657 504L767 494L767 601L657 601L548 601L438 601L329 601L219 601L110 601L0 601Z" fill="#ffa200"></path><path d="M0 561L110 558L219 558L329 571L438 521L548 537L657 550L767 537L767 601L657 601L548 601L438 601L329 601L219 601L110 601L0 601Z" fill="#ff9900"></path></svg>