<svg xmlns="http://www.w3.org/2000/svg" xmlns:xlink="http://www.w3.org/1999/xlink" id="visual" viewBox="0 0 991 1000" width="991" height="1000" version="1.1"><path d="M0 564L142 539L283 565L425 523L566 524L708 573L849 606L991 583L991 1001L849 1001L708 1001L566 1001L425 1001L283 1001L142 1001L0 1001Z" fill="#ffcc00"/><path d="M0 527L142 678L283 652L425 492L566 569L708 557L849 517L991 600L991 1001L849 1001L708 1001L566 1001L425 1001L283 1001L142 1001L0 1001Z" fill="#ffc400"/><path d="M0 648L142 581L283 622L425 731L566 656L708 565L849 710L991 696L991 1001L849 1001L708 1001L566 1001L425 1001L283 1001L142 1001L0 1001Z" fill="#ffbb00"/><path d="M0 659L142 647L283 757L425 747L566 723L708 680L849 721L991 651L991 1001L849 1001L708 1001L566 1001L425 1001L283 1001L142 1001L0 1001Z" fill="#ffb300"/><path d="M0 749L142 775L283 715L425 725L566 755L708 776L849 738L991 756L991 1001L849 1001L708 1001L566 1001L425 1001L283 1001L142 1001L0 1001Z" fill="#ffaa00"/><path d="M0 868L142 848L283 894L425 816L566 862L708 819L849 898L991 892L991 1001L849 1001L708 1001L566 1001L425 1001L283 1001L142 1001L0 1001Z" fill="#ffa200"/><path d="M0 920L142 919L283 907L425 921L566 954L708 944L849 951L991 870L991 1001L849 1001L708 1001L566 1001L425 1001L283 1001L142 1001L0 1001Z" fill="#ff9900"/></svg>